<svg width="500" height="500" viewBox="0 0 500 500" fill="none" xmlns="http://www.w3.org/2000/svg">
<g clip-path="url(#clip0)">
<circle cx="250" cy="250" r="250" fill="white"/>
<path d="M388.2 175.64C396.941 134.627 389.023 98.0477 352.776 69C344.437 97.1628 334.021 121.671 318.894 137.724C297.074 130.712 202.014 130.712 180.195 137.724C165.02 121.671 154.594 97.1628 146.226 69C110.017 98.0477 102.09 134.627 110.802 175.64C71.4914 204.87 60.3186 308.596 110.802 334.421C150.113 354.957 197.294 430 249.501 430C301.708 430 348.889 354.976 388.21 334.421C438.674 308.596 427.511 204.87 388.2 175.64Z" fill="#243E48" stroke="#243E48" stroke-linejoin="round"/>
<path d="M291 409C359.993 395.667 431.007 395.667 500 409" stroke="#243E48" stroke-miterlimit="10" stroke-linecap="round"/>
<path d="M291 392C359.993 380 431.007 380 500 392" stroke="#243E48" stroke-miterlimit="10" stroke-linecap="round"/>
<path d="M209 409C140.007 395.667 68.9927 395.667 0 409" stroke="#243E48" stroke-miterlimit="10" stroke-linecap="round"/>
<path d="M209 392C140.007 380 68.9927 380 0 392" stroke="#243E48" stroke-miterlimit="10" stroke-linecap="round"/>
</g>
<defs>
<clipPath id="clip0">
<rect width="500" height="500" fill="white"/>
</clipPath>
</defs>
</svg>
