<svg xmlns="http://www.w3.org/2000/svg" viewBox="0 0 794.5 389.07"><defs><style>.cls-1,.cls-15{fill:#fff;}.cls-1,.cls-13,.cls-14,.cls-15,.cls-17,.cls-19,.cls-2,.cls-3,.cls-4,.cls-5,.cls-6,.cls-7,.cls-8,.cls-9{stroke:#010101;}.cls-1,.cls-13,.cls-14,.cls-15,.cls-16,.cls-17,.cls-18,.cls-2,.cls-20,.cls-3,.cls-8,.cls-9{stroke-miterlimit:10;}.cls-1,.cls-2,.cls-3{stroke-width:3px;}.cls-2{fill:#fdc848;}.cls-3{fill:#f49719;fill-rule:evenodd;}.cls-11,.cls-4{fill:#010101;}.cls-16,.cls-17,.cls-18,.cls-4{stroke-width:2px;}.cls-13,.cls-14,.cls-16,.cls-17,.cls-18,.cls-19,.cls-20,.cls-5,.cls-6,.cls-7{fill:none;}.cls-19,.cls-5,.cls-6,.cls-7{stroke-miterlimit:6;}.cls-6{stroke-dasharray:3.14 2.1;}.cls-7{stroke-dasharray:2.81 1.87;}.cls-8{fill:#5a4394;}.cls-9{fill:#f39124;}.cls-10{fill:#aad3a8;}.cls-12{fill:#5f509d;}.cls-14{stroke-dasharray:6 6;}.cls-16{stroke:#f39124;}.cls-18{stroke:#34bacc;}.cls-19{stroke-dasharray:6 2;}.cls-20{stroke:#1d1d1b;}</style></defs><title>Recurso 1</title><g id="Capa_2" data-name="Capa 2"><g id="Capa_1-2" data-name="Capa 1"><path class="cls-1" d="M548.86,353.59a13.65,13.65,0,0,1-13.65,13.65H197.91a13.65,13.65,0,0,1-13.65-13.65V159.37a13.65,13.65,0,0,1,13.65-13.65h337.3a13.65,13.65,0,0,1,13.65,13.65Z"/><path class="cls-2" d="M196,350.32V164.59a2,2,0,0,1,1.95-2h337.3a2,2,0,0,1,1.95,2V350.32Z"/><path class="cls-3" d="M167.17,364.08a23.52,23.52,0,0,0-.63,5.45c0,10,16.42,18,23.84,18H538.64c7.4,0,23.83-8.07,23.83-18a24.08,24.08,0,0,0-.62-5.45Z"/><rect class="cls-4" x="216.05" y="375.47" width="124.16" height="2.18"/><rect class="cls-4" x="363.49" y="375.47" width="11.64" height="2.18"/><polyline class="cls-5" points="616.18 110.89 616.18 114.24 612.84 114.24"/><line class="cls-6" x1="608.16" y1="114.24" x2="528.66" y2="114.24"/><polyline class="cls-5" points="526.32 114.24 522.97 114.24 522.97 110.89"/><line class="cls-7" x1="522.97" y1="106.72" x2="522.97" y2="46.17"/><polyline class="cls-5" points="522.97 44.08 522.97 40.73 526.32 40.73"/><line class="cls-6" x1="531" y1="40.73" x2="610.5" y2="40.73"/><polyline class="cls-5" points="612.84 40.73 616.18 40.73 616.18 44.08"/><line class="cls-7" x1="616.18" y1="48.25" x2="616.18" y2="108.81"/><rect class="cls-8" x="543.96" y="19.75" width="93.21" height="73.51"/><path class="cls-9" d="M616.16,44.69a10.51,10.51,0,1,1-10.5-10.5A10.5,10.5,0,0,1,616.16,44.69Z"/><polygon class="cls-10" points="578.97 59.88 597.55 84.45 614.14 74.95 629.98 92.08 551.32 92.93 578.97 59.88"/><path class="cls-11" d="M578.84,65.26l17.82,23.56,16.83-9.64,8.91,9.64-63.85.69,20.29-24.25m.26-10.75L573.7,61,553.42,85.21l-9.33,11.15,14.53-.16,63.85-.69,15.09-.16L627.32,84.27l-8.91-9.64-3.62-3.92-4.63,2.66-11.72,6.71L584.18,61.22l-5.08-6.71Z"/><path class="cls-12" d="M95.56,59.3C95.56,86.18,74.17,108,47.78,108S0,86.18,0,59.3,21.39,10.63,47.78,10.63,95.56,32.42,95.56,59.3Z"/><line class="cls-13" x1="0.55" y1="59.3" x2="95" y2="59.3"/><path class="cls-13" d="M78.6,22.12A38.94,38.94,0,0,1,47.78,37.27,39,39,0,0,1,17,22.12"/><path class="cls-13" d="M17,96.47c7.16-10.06,18.31-16.54,30.83-16.54S71.44,86.41,78.6,96.47"/><path class="cls-13" d="M71.51,59.3c0-21.71-9.82-40.29-23.73-48C33.86,19,24.05,37.59,24.05,59.3s9.81,40.28,23.73,48C61.69,99.58,71.51,81,71.51,59.3Z"/><line class="cls-13" x1="47.78" y1="11.2" x2="47.78" y2="107.4"/><path class="cls-14" d="M60.12.5c43.15-.31,65.27,49.18,48.72,85.58-8.76,19.28-27.39,32.17-48.71,32"/><rect class="cls-15" x="597.68" y="166.97" width="196.32" height="169.44"/><rect class="cls-15" x="597.68" y="166.97" width="196.32" height="24.65"/><rect class="cls-15" x="597.68" y="166.97" width="53.91" height="24.65"/><path class="cls-11" d="M616.84,179.3a3.06,3.06,0,1,1-3.06-3.06A3.06,3.06,0,0,1,616.84,179.3Z"/><path class="cls-11" d="M629.31,179.3a3.07,3.07,0,1,1-3.06-3.06A3.06,3.06,0,0,1,629.31,179.3Z"/><path class="cls-11" d="M641.77,179.3a3.06,3.06,0,1,1-3.06-3.06A3.06,3.06,0,0,1,641.77,179.3Z"/><line class="cls-16" x1="663.39" y1="220.09" x2="714.9" y2="220.09"/><line class="cls-17" x1="637.64" y1="220.09" x2="654.38" y2="220.09"/><line class="cls-18" x1="637.64" y1="245.27" x2="665.89" y2="245.27"/><line class="cls-17" x1="671.74" y1="245.27" x2="695.07" y2="245.27"/><line class="cls-16" x1="702.61" y1="245.27" x2="714.9" y2="245.27"/><line class="cls-16" x1="637.64" y1="256.94" x2="689.15" y2="256.94"/><line class="cls-17" x1="696.84" y1="256.51" x2="715.9" y2="256.51"/><line class="cls-18" x1="670.54" y1="232.68" x2="683.05" y2="232.68"/><line class="cls-17" x1="689.79" y1="232.68" x2="702.3" y2="232.68"/><line class="cls-17" x1="637.64" y1="232.68" x2="664.84" y2="232.68"/><line class="cls-17" x1="663.39" y1="270.45" x2="677.87" y2="270.45"/><line class="cls-16" x1="637.64" y1="270.45" x2="654.38" y2="270.45"/><line class="cls-17" x1="703.34" y1="270.45" x2="722.28" y2="270.45"/><line class="cls-16" x1="682.06" y1="270.45" x2="698.79" y2="270.45"/><line class="cls-18" x1="637.64" y1="295.63" x2="665.89" y2="295.63"/><line class="cls-17" x1="671.74" y1="295.63" x2="695.07" y2="295.63"/><line class="cls-17" x1="637.64" y1="307.31" x2="654.18" y2="307.31"/><line class="cls-18" x1="662.07" y1="307.31" x2="674.91" y2="307.31"/><line class="cls-18" x1="670.54" y1="283.04" x2="702.34" y2="283.04"/><line class="cls-17" x1="637.64" y1="283.04" x2="664.84" y2="283.04"/><path class="cls-17" d="M611.42,219.6h5.22"/><path class="cls-17" d="M611.42,244.78h5.2"/><path class="cls-17" d="M611.42,256.46h5.29"/><path class="cls-17" d="M611.42,232.19h5"/><path class="cls-17" d="M611.42,270h5.22"/><path class="cls-17" d="M611.42,295.15h5.2"/><path class="cls-17" d="M611.42,306.82h5.29"/><path class="cls-17" d="M611.42,282.55h5"/><line class="cls-16" x1="721.36" y1="220.09" x2="736.78" y2="220.09"/><line class="cls-17" x1="729.71" y1="245.27" x2="753.03" y2="245.27"/><line class="cls-16" x1="760.58" y1="245.27" x2="772.87" y2="245.27"/><path class="cls-16" d="M723.07,256.94h24"/><line class="cls-18" x1="728.51" y1="232.68" x2="741.02" y2="232.68"/><line class="cls-17" x1="747.75" y1="232.68" x2="760.26" y2="232.68"/><path class="cls-17" d="M714.92,232.68h7.89"/><line class="cls-17" x1="721.36" y1="270.45" x2="735.84" y2="270.45"/><line class="cls-17" x1="765.78" y1="270.45" x2="780.25" y2="270.45"/><line class="cls-16" x1="740.02" y1="270.45" x2="756.76" y2="270.45"/><path class="cls-18" d="M714.83,295.63h9"/><line class="cls-17" x1="729.71" y1="295.63" x2="753.03" y2="295.63"/><line class="cls-18" x1="681.91" y1="307.31" x2="694.75" y2="307.31"/><line class="cls-18" x1="728.51" y1="283.04" x2="772.87" y2="283.04"/><path class="cls-17" d="M714.92,283h7.89"/><rect class="cls-19" x="196.76" y="32.35" width="65.7" height="65.7"/><rect class="cls-15" x="190.09" y="23.76" width="17.18" height="17.18"/><rect class="cls-15" x="251.95" y="23.76" width="17.18" height="17.18"/><rect class="cls-15" x="190.09" y="89.44" width="17.18" height="17.18"/><rect class="cls-15" x="251.95" y="89.44" width="17.18" height="17.18"/><rect class="cls-15" x="44.59" y="253.47" width="45.79" height="45.79"/><line class="cls-13" x1="49.05" y1="257.41" x2="85.92" y2="295.32"/><line class="cls-13" x1="85.92" y1="257.41" x2="49.05" y2="295.32"/><rect class="cls-15" x="377.15" y="43.35" width="39.92" height="39.93"/><line class="cls-13" x1="381.04" y1="46.79" x2="413.18" y2="79.84"/><line class="cls-13" x1="413.18" y1="46.79" x2="381.04" y2="79.84"/><path d="M409.89,257.22A39.26,39.26,0,0,0,407.5,243c-4.44-11.4-16.17-21-44.23-20.91-23.1,0-37.17,9.66-43.13,21.16a29.13,29.13,0,0,0-3.33,13.37c0,5.75,1.07,18,7.68,20.6,15.59,6,23.81,26.24,38.78,26.24,14.46,0,22.3-20.68,41.16-26.11C410.46,275.61,409.89,263.33,409.89,257.22Z"/><path d="M390.43,283.92c-1.91.61-3.8,1.15-5.63,1.61-5.42,8.8-11.34,16.33-21.45,16.2-11.89-.15-17.58-8-23-16.66-1.28-.35-2.57-.73-3.88-1.15-.81-.25-1.6-.52-2.38-.79,10,8.27,17.57,20.33,29.14,20.33,11.14,0,18.36-12.27,29.7-20.39C392.14,283.36,391.3,283.65,390.43,283.92Z"/><path d="M336.32,206.17a73.06,73.06,0,0,0,7.06,12.53c2.1,3.26,3.38,5.63,2.82,7.63l-9.88,4.28-9.87,4.27a21.26,21.26,0,0,1-.11-16.81A25.7,25.7,0,0,1,336.32,206.17Z"/><path d="M392.62,206.17a25.66,25.66,0,0,1,10,11.9,21.26,21.26,0,0,1-.11,16.81l-9.88-4.27-9.87-4.28c-.56-2,.72-4.37,2.82-7.63A73.77,73.77,0,0,0,392.62,206.17Z"/><path class="cls-20" d="M370.87,292.91c26-5.64,48.43-4.42,65.5.48"/><path class="cls-20" d="M369.73,297c31.07-6.1,54.64-.79,67.41,7.24"/><path class="cls-20" d="M356.86,293.19c-26-5.42-48.45-4.2-65.57.52"/><path class="cls-20" d="M357.94,297.56c-31-6.21-54.62-.9-67.36,7.21"/></g></g></svg>