<?xml version="1.0" encoding="UTF-8"?>
<svg xmlns="http://www.w3.org/2000/svg" xmlns:xlink="http://www.w3.org/1999/xlink" viewBox="0 0 48 48" version="1.1" width="96px" height="96px">
<g id="surface1">
<path style=" fill:#2196F3;" d="M 36 32.699219 L 35 39 C 35 41.199219 29.898438 43 24 43 C 18.101563 43 13 41.199219 13 39 L 12 32.699219 C 11.898438 32.300781 12.300781 31.898438 12.800781 32.101563 C 15.800781 33.398438 20 34 24 34 C 28 34 32.199219 33.398438 35.199219 32.101563 C 35.601563 31.898438 36.101563 32.300781 36 32.699219 Z M 41 10 C 41 10.199219 41 10.300781 40.898438 10.5 L 38 27 C 38 29.800781 31.800781 32 24.101563 32 C 16.398438 32 10 29.800781 10 27 L 7.101563 10.5 C 7 10.300781 7 10.199219 7 10 C 7 7.199219 14.601563 5 24 5 C 33.398438 5 41 7.199219 41 10 Z M 29 23 C 29 20.199219 26.800781 18 24 18 C 21.199219 18 19 20.199219 19 23 C 19 25.800781 21.199219 28 24 28 C 26.800781 28 29 25.800781 29 23 Z M 35.800781 10 C 35.800781 8.300781 30.5 7 24 7 C 17.5 7 12.199219 8.300781 12.199219 10 C 12.199219 11.699219 17.5 13 24 13 C 30.5 13 35.800781 11.699219 35.800781 10 Z M 24 25 C 25.101563 25 26 24.101563 26 23 C 26 21.898438 25.101563 21 24 21 C 22.898438 21 22 21.898438 22 23 C 22 24.101563 22.898438 25 24 25 Z "/>
</g>
</svg>
