<svg id="Capa_1" data-name="Capa 1" xmlns="http://www.w3.org/2000/svg" viewBox="0 0 47.47 30.02"><defs><style>.cls-1{fill:#e0a679;}.cls-2{fill:#e55728;}.cls-3{fill:#fff;}.cls-4{fill:#e34620;}.cls-5{fill:#1c1a1a;}.cls-6{fill:none;stroke:#f2e3e3;stroke-miterlimit:10;stroke-width:0.1px;}.cls-7{fill:#6e6b6b;fill-opacity:0.3;}.cls-8{fill:#131011;}</style></defs><title>codea_color_v_01</title><path class="cls-1" d="M39.27,17.46h0c-7-3-13.51,8.47-13.51,8.47s-3.15-10.17-13.19-8.4h0a8.84,8.84,0,0,0-1,4.09c0,1.75.33,5.51,2.35,6.29,4.76,1.85,7.28,8,11.85,8s6.82-6.32,12.58-8C40.17,27.42,40,23.67,40,21.8A12.11,12.11,0,0,0,39.27,17.46Z" transform="translate(-0.88 -6.2)"/><path class="cls-2" d="M39.27,17.46c-1.36-3.49-4.94-6.41-13.52-6.4-7.06,0-11.36,3-13.18,6.47h0c10-1.77,13.19,8.4,13.19,8.4s6.53-11.45,13.51-8.47Z" transform="translate(-0.88 -6.2)"/><path class="cls-3" d="M35.89,24.12c-1.36,2.39-3,4.05-4.42,3.21s-1.55-3.44-.19-5.84,6.25-4.07,5.11-2.83C33.24,22.1,37.25,21.72,35.89,24.12Z" transform="translate(-0.88 -6.2)"/><path class="cls-4" d="M34.05,30c-.58.19-1.16.35-1.72.49-1.66,2.69-3.47,5-6.56,4.95-3.63,0-5.37-2.44-7-5.09-.39-.1-.79-.22-1.19-.35l-.73-.24c3.07,2.53,5.37,6.21,8.91,6.21s5.61-3.75,9.08-6.23Z" transform="translate(-0.88 -6.2)"/><path class="cls-5" d="M34.43,22.94c-.51-.12-.74-1-.52-1.93l.06-.2c-1.08-.19-2.4.89-3.08,2.57-.73,1.83-.42,3.68.7,4.13a1.4,1.4,0,0,0,.54.1l-.05-.09a1.2,1.2,0,0,1,.45-1.62,1.19,1.19,0,0,1,1.46.68A5.49,5.49,0,0,0,35,25a5,5,0,0,0,.35-2.53A.92.92,0,0,1,34.43,22.94Z" transform="translate(-0.88 -6.2)"/><path class="cls-3" d="M16.11,24.12c1.36,2.39,3,4.05,4.43,3.21s1.55-3.44.19-5.84-6.26-4.07-5.12-2.83C18.77,22.1,14.75,21.72,16.11,24.12Z" transform="translate(-0.88 -6.2)"/><path class="cls-5" d="M17.57,22.94c.51-.12.74-1,.52-1.93,0-.07,0-.14-.05-.2,1.07-.19,2.4.89,3.07,2.57.74,1.83.43,3.68-.69,4.13a1.47,1.47,0,0,1-.54.1l0-.09a1.2,1.2,0,0,0-.44-1.62,1.18,1.18,0,0,0-1.46.68,5.28,5.28,0,0,1-1-1.57,4.85,4.85,0,0,1-.35-2.53C17,22.82,17.28,23,17.57,22.94Z" transform="translate(-0.88 -6.2)"/><path class="cls-2" d="M17.51,6.2A22.8,22.8,0,0,0,19.67,10c.64,1,1,1.72.86,2.33l-3,1.31-3,1.3a6.49,6.49,0,0,1,0-5.13A8,8,0,0,1,17.51,6.2Z" transform="translate(-0.88 -6.2)"/><path class="cls-2" d="M34.72,6.2a7.84,7.84,0,0,1,3.05,3.64,6.49,6.49,0,0,1,0,5.13l-3-1.3-3-1.31c-.17-.61.22-1.34.86-2.33A22.12,22.12,0,0,0,34.72,6.2Z" transform="translate(-0.88 -6.2)"/><path class="cls-6" d="M28.07,32.71c7.93-1.73,14.8-1.35,20,.15" transform="translate(-0.88 -6.2)"/><path class="cls-6" d="M27.72,34c9.5-1.87,16.7-.25,20.6,2.21" transform="translate(-0.88 -6.2)"/><path class="cls-6" d="M3.56,32.64a42.92,42.92,0,0,1,19.92-.17" transform="translate(-0.88 -6.2)"/><path class="cls-6" d="M.9,35.37c4.53-2.5,12.58-3.95,23-1.57" transform="translate(-0.88 -6.2)"/><circle class="cls-7" cx="33.15" cy="16.2" r="0.86"/><circle class="cls-7" cx="16.97" cy="16.13" r="0.86"/><path class="cls-8" d="M27.06,33c-.15.74-.58,1.83-1.27,1.83s-1.13-1-1.24-1.83.63-.72,1.32-.72S27.18,32.29,27.06,33Z" transform="translate(-0.88 -6.2)"/></svg>