<svg id="Capa_1" data-name="Capa 1" xmlns="http://www.w3.org/2000/svg" viewBox="0 0 500 250"><defs><style>.cls-1{fill:none;stroke:#1d1d1b;stroke-miterlimit:10;}.cls-2{font-size:80px;fill:#1d1d1b;font-family:Gilroy-ExtraBold, Gilroy;font-weight:800;}.cls-3{letter-spacing:0em;}.cls-4{letter-spacing:0em;}</style></defs><title>codea_logo_svg</title><path d="M173,107.36h0c-32.3-13.78-62.59,39.3-62.59,39.3S95.77,99.52,49.25,107.71h0a41.28,41.28,0,0,0-4.73,18.93c0,8.15,1.52,25.56,10.88,29.19C77.48,164.39,89.13,193,110.34,193c20.48,0,31.58-29.28,58.29-37,8.55-2.47,7.73-19.86,7.73-28.52A55.52,55.52,0,0,0,173,107.36Z"/><path d="M173,107.36c-6.27-16.15-22.89-29.71-62.63-29.63-32.73.07-52.65,13.69-61.09,30h0c46.52-8.19,61.13,39,61.13,39s30.29-53.08,62.59-39.3Z"/><path d="M148.8,165.32c-2.7.86-5.37,1.63-8,2.28-7.67,12.46-16,23.13-30.38,23-16.84-.23-24.9-11.35-32.52-23.6q-2.72-.75-5.49-1.63c-1.15-.36-2.26-.74-3.37-1.13C83.26,175.9,94,193,110.34,193c15.77,0,26-17.38,42.06-28.88C151.22,164.53,150,164.93,148.8,165.32Z"/><path d="M72.17,55.19c3,7.32,7,13.16,10,17.75s4.79,8,4,10.81l-14,6-14,6.06A30.17,30.17,0,0,1,58,72.05,36.36,36.36,0,0,1,72.17,55.19Z"/><path d="M151.91,55.19a36.42,36.42,0,0,1,14.15,16.86,30.17,30.17,0,0,1-.16,23.81l-14-6.06-14-6c-.79-2.84,1-6.2,4-10.81S149,62.51,151.91,55.19Z"/><path class="cls-1" d="M121.1,178c36.76-8,68.6-6.26,92.77.7"/><path class="cls-1" d="M119.49,183.88c44-8.65,77.38-1.12,95.47,10.25"/><path class="cls-1" d="M101.25,178.45c-36.84-7.69-68.62-5.95-92.87.73"/><path class="cls-1" d="M102.78,184.63c-43.94-8.79-77.37-1.27-95.4,10.22"/><text class="cls-2" transform="translate(232.14 152.76)"><tspan class="cls-3">C</tspan><tspan x="57.12" y="0">od</tspan><tspan class="cls-3" x="154.16" y="0">e</tspan><tspan class="cls-4" x="200.16" y="0">a</tspan></text></svg>