<svg id="Capa_1" data-name="Capa 1" xmlns="http://www.w3.org/2000/svg" viewBox="0 0 500 500"><defs><style>.cls-1{fill:none;stroke:#1d1d1b;stroke-miterlimit:10;}.cls-2{font-size:132.1px;fill:#1d1d1b;font-family:Gilroy-ExtraBold, Gilroy;font-weight:800;}.cls-3{letter-spacing:0em;}.cls-4{letter-spacing:0em;}</style></defs><title>codea-preview</title><path d="M390.76,159.47c0-14.38-1.84-29.41-7.33-43.53C369.86,81,333.94,51.72,248,51.9,177.28,52,134.22,81.48,116,116.71a89.07,89.07,0,0,0-10.22,40.92c0,17.6,3.29,55.25,23.53,63.09C177,239.22,202.19,301.05,248,301.05c44.27,0,68.28-63.3,126-79.94C392.52,215.78,390.76,178.17,390.76,159.47Z"/><path d="M331.18,241.24c-5.84,1.86-11.62,3.52-17.25,4.93-16.58,26.94-34.7,50-65.67,49.6-36.41-.48-53.84-24.52-70.3-51q-5.86-1.6-11.89-3.52c-2.47-.79-4.88-1.61-7.26-2.44,30.69,25.32,53.79,62.25,89.22,62.25,34.1,0,56.19-37.57,90.93-62.43C336.41,239.52,333.83,240.4,331.18,241.24Z"/><path d="M165.51,3.16c6.4,15.83,15.25,28.45,21.6,38.38s10.35,17.22,8.64,23.35L165.51,78,135.27,91.08c-7.7-17.37-6.76-35.77-.34-51.47A78.68,78.68,0,0,1,165.51,3.16Z"/><path d="M337.9,3.16a78.68,78.68,0,0,1,30.58,36.45c6.42,15.7,7.36,34.1-.34,51.47L337.9,78l-30.24-13.1c-1.71-6.13,2.21-13.39,8.64-23.35S331.5,19,337.9,3.16Z"/><path class="cls-1" d="M271.3,268.74c79.46-17.25,148.28-13.53,200.54,1.49"/><path class="cls-1" d="M267.81,281.35c95.11-18.69,167.29-2.42,206.38,22.17"/><path class="cls-1" d="M228.39,269.61C148.74,253,80,256.76,27.63,271.2"/><path class="cls-1" d="M231.7,283c-95-19-167.25-2.76-206.24,22.1"/><text class="cls-2" transform="translate(42.88 485.15)"><tspan class="cls-3">C</tspan><tspan x="94.32" y="0">od</tspan><tspan class="cls-4" x="254.56" y="0">e</tspan><tspan x="330.52" y="0">a</tspan></text></svg>