<svg id="Capa_1" data-name="Capa 1" xmlns="http://www.w3.org/2000/svg" viewBox="0 0 1000 1000"><defs><style>.cls-1{fill:#3740ff;}.cls-1,.cls-2{stroke:#000;stroke-miterlimit:10;stroke-width:10px;}.cls-2{fill:none;}</style></defs><title>coments-icon</title><rect class="cls-1" x="233.99" y="296.3" width="543.82" height="23.72"/><rect class="cls-1" x="233.99" y="426.74" width="543.82" height="23.69"/><path class="cls-2" d="M790.89,25H206.7c-74,0-134.13,49.67-134.13,110.67V607.89c0,61,60.15,110.64,134.13,110.64h44.82l160.57,249.7,2.48,3.87,163-253.61H790.89c73.93,0,134.11-49.6,134.11-110.63V135.67C925,74.67,864.82,25,790.89,25Zm0,669.83H564.71L414.57,928.28,265.34,696.18l-.9-1.35H206.7c-60.9,0-110.45-39-110.45-87V135.67c0-47.94,49.55-86.95,110.45-86.95H790.89c60.91,0,110.4,39,110.4,86.95V607.89C901.29,655.8,851.8,694.83,790.89,694.83Z"/></svg>