<svg id="Capa_1" data-name="Capa 1" xmlns="http://www.w3.org/2000/svg" viewBox="0 0 500 500"><defs><style>.cls-1{fill:none;stroke:#1d1d1b;stroke-miterlimit:10;}</style></defs><title>favicon</title><path d="M405.07,240.51c0-15.85-2-32.43-8.09-48C382,154,342.4,121.69,247.67,121.89c-78,.16-125.51,32.62-145.63,71.47a98.29,98.29,0,0,0-11.27,45.12c0,19.42,3.63,60.93,25.94,69.58,52.63,20.4,80.41,88.59,131,88.59,48.82,0,75.29-69.81,139-88.16C407,302.61,405.07,261.14,405.07,240.51Z"/><path d="M339.37,330.69c-6.45,2.05-12.82,3.88-19,5.43-18.28,29.71-38.27,55.15-72.42,54.7-40.15-.53-59.37-27-77.52-56.25-4.31-1.18-8.69-2.48-13.11-3.88q-4.08-1.31-8-2.69c33.86,27.92,59.33,68.65,98.4,68.65,37.61,0,62-41.44,100.27-68.85C345.13,328.79,342.29,329.76,339.37,330.69Z"/><path d="M156.67,68.14c7.06,17.46,16.82,31.38,23.82,42.32s11.42,19,9.53,25.76l-33.35,14.44L123.32,165.1c-8.49-19.16-7.46-39.45-.38-56.76A86.9,86.9,0,0,1,156.67,68.14Z"/><path d="M346.77,68.14a86.9,86.9,0,0,1,33.73,40.2c7.08,17.31,8.11,37.6-.38,56.76l-33.35-14.44-33.35-14.44c-1.88-6.76,2.45-14.77,9.53-25.76S339.71,85.6,346.77,68.14Z"/><path class="cls-1" d="M273.33,361c87.63-19,163.52-14.92,221.15,1.65"/><path class="cls-1" d="M269.48,374.92c104.88-20.61,184.48-2.67,227.59,24.45"/><path class="cls-1" d="M226,362C138.18,343.66,62.42,347.8,4.62,363.73"/><path class="cls-1" d="M229.66,376.72c-104.75-21-184.44-3-227.43,24.37"/></svg>