<svg xmlns="http://www.w3.org/2000/svg" viewBox="0 0 500 500"><defs><style>.cls-1,.cls-3{fill:none;}.cls-1,.cls-3,.cls-4{stroke:#000;stroke-miterlimit:10;}.cls-1{stroke-width:10px;}.cls-2,.cls-4{fill:#3740ff;}.cls-3{stroke-width:5px;}.cls-4{stroke-width:3px;}</style></defs><title>file-codea-code</title><g id="Capa_1" data-name="Capa 1"><rect class="cls-1" x="59.28" y="159.48" width="383.2" height="332.52"/><polygon class="cls-1" points="442.47 159.28 442.47 138.16 317.31 138.16 317.31 13 59.28 13 59.28 159.28 442.47 159.28"/><polygon class="cls-2" points="334 122 334 22.41 433.59 122 334 122"/><path d="M339,34.48,421.52,117H339V34.48M329,10.34V127H445.66L329,10.34Z"/><rect class="cls-3" x="124.47" y="78.85" width="137.55" height="7.8"/></g><g id="Capa_3" data-name="Capa 3"><path class="cls-4" d="M219.32,345.42l-65.95-34.54V305.8l65.95-39.35v7.88L162.06,308l57.26,29.46Z"/><path class="cls-4" d="M277.45,246.11,239.55,367.5h-7.28l37.86-121.39Z"/><path class="cls-4" d="M290.4,337.43,347.65,308,290.4,274.33v-7.88l66,39.35v5.08l-66,34.54Z"/></g></svg>