<svg xmlns="http://www.w3.org/2000/svg" viewBox="0 0 974.84 602.71"><defs><style>.cls-1{fill:none;}.cls-1,.cls-2{stroke:#000;stroke-miterlimit:10;}.cls-2{fill:#3740ff;}</style></defs><title>files-codea-icon</title><g id="Capa_1" data-name="Capa 1"><rect class="cls-1" x="0.5" y="259.84" width="322.13" height="279.53"/><polygon class="cls-1" points="322.63 259.67 322.63 241.92 217.41 241.92 217.41 136.7 0.5 136.7 0.5 259.67 322.63 259.67"/><polygon class="cls-2" points="224.56 136.7 224.56 234.77 322.63 234.77 224.56 136.7"/><rect class="cls-1" x="39.71" y="183.89" width="126.73" height="7.19"/><path class="cls-2" d="M190.17,578.27l-24.09,0V542.16L148,565.32,130,542.16v36.13H105.86V506H130L148,530.11,166.08,506l24.09,0Zm36,6-29.94-42.13h18.07V506h24.09v36.13h18.06Z" transform="translate(-12.32 -153.79)"/></g><g id="Capa_2" data-name="Capa 2"><rect class="cls-1" x="492.84" y="185" width="480.79" height="417.21"/><polygon class="cls-1" points="973.63 184.74 973.63 158.25 816.59 158.25 816.59 1.21 492.84 1.21 492.84 184.74 973.63 184.74"/><polygon class="cls-2" points="827.26 1.21 827.26 147.58 973.63 147.58 827.26 1.21"/><rect class="cls-1" x="551.36" y="71.64" width="189.15" height="10.73"/><path class="cls-2" d="M694.1,592,603.42,544.5v-7L694.1,483.4v10.84L615.37,540.5,694.1,581Z" transform="translate(-12.32 -153.79)"/><path class="cls-2" d="M774,455.43,721.92,622.36h-10L764,455.43Z" transform="translate(-12.32 -153.79)"/><path class="cls-2" d="M791.86,581l78.72-40.52-78.72-46.26V483.4l90.68,54.12v7L791.86,592Z" transform="translate(-12.32 -153.79)"/></g><g id="Capa_3" data-name="Capa 3"><rect class="cls-1" x="330.86" y="485.07" width="209.68" height="241.64" transform="translate(-288.83 674.98) rotate(-71.66)"/><polygon class="cls-1" points="571.1 390.48 575.28 377.84 500.37 353 525.21 278.09 370.76 226.88 341.74 314.44 571.1 390.48"/><polygon class="cls-2" points="530.3 279.77 507.15 349.6 576.97 372.75 530.3 279.77"/><rect class="cls-1" x="396.59" y="438.35" width="95.06" height="5.39" transform="translate(149.04 -271.15) rotate(18.34)"/><path class="cls-2" d="M445.77,631.53a3.65,3.65,0,1,1-2.32-4.61A3.64,3.64,0,0,1,445.77,631.53Z" transform="translate(-12.32 -153.79)"/><path class="cls-2" d="M418.24,622.4a3.64,3.64,0,1,1-2.31-4.61A3.64,3.64,0,0,1,418.24,622.4Z" transform="translate(-12.32 -153.79)"/><path class="cls-2" d="M386.78,617.36c-1,3.13-.91,5.76.4,7.92s4.14,4,8.48,5.54L394.28,635q-9-3-11.6-7.67c-1.76-3.14-1.86-7.1-.27-11.87L387.54,600q3.12-9.42-7.39-13.1l1.22-3.68q5.65,1.77,8.86.34c2.15-.95,3.74-2.94,4.74-6l5.34-16.08q4.54-13.72,21.17-8.52l-1.37,4.13q-6.41-1.87-10.07-.38T404.82,563l-4.65,14c-1.32,4-3,6.73-5,8.24s-4.61,2.1-7.82,1.74l-.12.37a10.5,10.5,0,0,1,5.22,6q1.09,3.6-.79,9.25Z" transform="translate(-12.32 -153.79)"/><path class="cls-2" d="M474.17,629.92c1.25-3.77,2.88-6.39,4.88-7.89a10.45,10.45,0,0,1,7.78-1.68L487,620a10.44,10.44,0,0,1-5.23-6c-.7-2.4-.4-5.62.93-9.63l4.65-14c1-3.14.9-5.86-.44-8.12s-4.12-4.18-8.32-5.74l1.37-4.13q8,2.64,11.09,7.62t.8,11.86l-5.33,16.09q-1.53,4.59.24,7.65t7.3,5l-1.22,3.68q-10.62-3.32-13.76,6.1l-5.13,15.48q-2.36,7.13-7.3,9.34t-13.89-.76l1.38-4.18q6.5,2.05,10.06.65t5.12-6.13Z" transform="translate(-12.32 -153.79)"/></g></svg>