<svg xmlns="http://www.w3.org/2000/svg" viewBox="0 0 500 500"><defs><style>.cls-1,.cls-3{fill:none;}.cls-1,.cls-3,.cls-4{stroke:#000;stroke-miterlimit:10;}.cls-1{stroke-width:10px;}.cls-2,.cls-4{fill:#3740ff;}.cls-3,.cls-4{stroke-width:5px;}</style></defs><title>file-md-codea</title><g id="Capa_1" data-name="Capa 1"><rect class="cls-1" x="59.28" y="159.48" width="383.2" height="332.52"/><polygon class="cls-1" points="442.47 159.28 442.47 138.16 317.31 138.16 317.31 13 59.28 13 59.28 159.28 442.47 159.28"/><polygon class="cls-2" points="334 122 334 22.41 433.59 122 334 122"/><path d="M339,34.48,421.52,117H339V34.48M329,10.34V127H445.66L329,10.34Z"/><rect class="cls-3" x="124.47" y="78.85" width="137.55" height="7.8"/></g><g id="Capa_4" data-name="Capa 4"><path class="cls-4" d="M270.2,338.17l-26.8,0V298l-20.1,25.77L203.2,298v40.2H176.4V257.8h26.8l20.1,26.8,20.1-26.8,26.8,0Zm40,6.7L276.9,298H297V257.8h26.8V298h20.1Z"/></g></svg>