<svg xmlns="http://www.w3.org/2000/svg" viewBox="0 0 1000 1000"><defs><style>.cls-1{fill:none;}.cls-1,.cls-2{stroke:#000;stroke-miterlimit:10;stroke-width:10px;}.cls-2{fill:#3740ff;}</style></defs><title>fork</title><g id="Capa_1" data-name="Capa 1"><path class="cls-1" d="M802.43,251A111.79,111.79,0,1,0,608.7,326.51c-14,59.06-48.3,70.52-122.8,89.27-37.69,9.49-81.13,20.63-120.8,44.23V210.37c31.59-19.77,52.84-54.63,52.84-94.56a111.79,111.79,0,1,0-223.58,0c0,40,21.27,74.82,52.9,94.59V788.6c-31.63,19.77-52.9,54.63-52.9,94.59a111.81,111.81,0,1,0,223.61,0c0-39.93-21.28-74.82-52.84-94.56V675.29c14.62-111,68.4-124.72,149.56-145.17,74.47-18.77,175.49-44.59,207.7-172.46C768.54,343.93,802.43,301.61,802.43,251Z"/></g><g id="Capa_4" data-name="Capa 4"><path class="cls-2" d="M306.19,936A52.86,52.86,0,1,1,359,883.16,53,53,0,0,1,306.19,936Z"/></g><g id="Capa_2" data-name="Capa 2"><path class="cls-2" d="M690.62,303.91a52.86,52.86,0,1,1,52.87-52.84A52.91,52.91,0,0,1,690.62,303.91Z"/></g><g id="Capa_3" data-name="Capa 3"><path class="cls-2" d="M306.19,63a52.85,52.85,0,1,1-52.89,52.87A52.93,52.93,0,0,1,306.19,63Z"/></g></svg>