<svg xmlns="http://www.w3.org/2000/svg" viewBox="0 0 500 500"><defs><style>.cls-1{fill:none;}.cls-1,.cls-2,.cls-3,.cls-4{stroke:#000;stroke-miterlimit:10;}.cls-1,.cls-2{stroke-width:10px;}.cls-2,.cls-3,.cls-4{fill:#3740ff;}.cls-3{stroke-linecap:square;}.cls-3,.cls-4{stroke-width:5px;}</style></defs><title>idea-codea</title><g id="Capa_1" data-name="Capa 1"><path class="cls-1" d="M248,7C147.73,7,66.15,88.59,66.15,188.9A182.29,182.29,0,0,0,142.4,337l2.25,1.48c11.11,6.51,12.19,27.51,12,31.36l-.06,1.89v59.71a30.24,30.24,0,0,0,16.53,27l61.15,31.23A30.15,30.15,0,0,0,248,493a30.57,30.57,0,0,0,13.68-3.25l61.91-31.28a30.25,30.25,0,0,0,16.63-27.05V372.07c0-29.94,18.27-39.82,18.45-39.89l6.72-4.32a181.69,181.69,0,0,0,64.51-139C429.93,88.59,348.33,7,248,7Zm97.75,298s-20.31,9.5-30.38,35.78H181.89c-3.79-10.49-10.31-21.3-22-28.2A151.6,151.6,0,1,1,345.78,305Z"/><path class="cls-2" d="M261.49,80.78a13.53,13.53,0,1,0,0,27.06c30.44,0,67.67,27.71,67.67,68.95a13.54,13.54,0,0,0,27.07,0C356.23,115,308,80.78,261.49,80.78Z"/></g><g id="Capa_3" data-name="Capa 3"><polygon class="cls-3" points="247.94 433.04 193.33 405.13 303.22 405.13 247.94 433.04"/></g><g id="Capa_2" data-name="Capa 2"><rect class="cls-4" x="192.89" y="356.13" width="109.96" height="27.49"/></g></svg>