<svg id="Capa_1" data-name="Capa 1" xmlns="http://www.w3.org/2000/svg" viewBox="0 0 113.19 23.03"><defs><style>.cls-1{fill:none;stroke:#1d1d1b;stroke-miterlimit:10;stroke-width:0.2px;}.cls-2{font-size:15.53px;fill:#424242;font-family:Gilroy-Medium, Gilroy;font-weight:500;}.cls-3{letter-spacing:-0.01em;}.cls-4{letter-spacing:0em;}.cls-5{letter-spacing:-0.04em;}.cls-6{letter-spacing:0em;}.cls-7{letter-spacing:-0.02em;}.cls-8{font-size:6.09px;fill:#36ad63;font-family:Gilroy-Light, Gilroy;font-weight:300;}.cls-9{letter-spacing:-0.05em;}.cls-10{letter-spacing:0em;}</style></defs><title>logo-codea</title><path d="M32.11,14.76a8.3,8.3,0,0,0-.52-3c-.94-2.43-3.45-4.48-9.46-4.47-4.94,0-7.95,2.07-9.22,4.53a6.22,6.22,0,0,0-.72,2.86c0,1.23.23,3.86,1.65,4.41,3.33,1.29,5.09,5.61,8.29,5.61s4.77-4.42,8.81-5.59C32.23,18.69,32.11,16.06,32.11,14.76Z" transform="translate(-6.53 -3.83)"/><path d="M27.94,20.47c-.4.13-.81.25-1.2.34-1.16,1.89-2.43,3.5-4.59,3.47-2.54,0-3.76-1.71-4.91-3.56l-.83-.25-.51-.17c2.14,1.77,3.76,4.35,6.23,4.35s3.93-2.63,6.36-4.36Z" transform="translate(-6.53 -3.83)"/><path d="M16.37,3.83a15.08,15.08,0,0,0,1.51,2.69c.45.69.72,1.2.6,1.63l-2.11.91L14.25,10a4.59,4.59,0,0,1,0-3.6A5.48,5.48,0,0,1,16.37,3.83Z" transform="translate(-6.53 -3.83)"/><path d="M28.41,3.83a5.48,5.48,0,0,1,2.14,2.55,4.59,4.59,0,0,1,0,3.6l-2.12-.92L26.3,8.15c-.12-.43.15-.94.6-1.63A15.08,15.08,0,0,0,28.41,3.83Z" transform="translate(-6.53 -3.83)"/><path class="cls-1" d="M23.76,22.39a29,29,0,0,1,14,.11" transform="translate(-6.53 -3.83)"/><path class="cls-1" d="M23.52,23.27c6.64-1.3,11.68-.17,14.42,1.55" transform="translate(-6.53 -3.83)"/><path class="cls-1" d="M20.76,22.45a30.15,30.15,0,0,0-14,.11" transform="translate(-6.53 -3.83)"/><path class="cls-1" d="M21,23.39c-6.63-1.33-11.68-.2-14.41,1.54" transform="translate(-6.53 -3.83)"/><text class="cls-2" transform="translate(36.98 15.22)"><tspan class="cls-3">c</tspan><tspan x="8.37" y="0">od</tspan><tspan class="cls-4" x="27.56" y="0">e</tspan><tspan x="36.6" y="0">a</tspan><tspan class="cls-5" x="46.43" y="0">.</tspan><tspan class="cls-6" x="49.58" y="0">d</tspan><tspan class="cls-7" x="59.41" y="0">e</tspan><tspan x="68.16" y="0">v</tspan></text><text class="cls-8" transform="translate(97.05 21.56) scale(1.06 1)">BE<tspan class="cls-9" x="7.04" y="0">T</tspan><tspan class="cls-10" x="10.02" y="0">A</tspan></text></svg>