<svg id="Capa_1" data-name="Capa 1" xmlns="http://www.w3.org/2000/svg" viewBox="0 0 500 500"><defs><style>.cls-1{fill:none;stroke:#1d1d1b;stroke-miterlimit:10;}</style></defs><title>logo</title><path d="M389,252.87c0-14.63-1.88-29.93-7.47-44.31C367.7,173,331.14,143.2,243.7,143.38c-72,.15-115.84,30.12-134.42,66A90.7,90.7,0,0,0,98.88,251c0,17.92,3.35,56.24,24,64.22C171.41,334.05,197,397,243.7,397c45.06,0,69.49-64.43,128.25-81.37C390.76,310.19,389,271.91,389,252.87Z"/><path d="M328.34,336.1c-6,1.89-11.84,3.59-17.57,5-16.87,27.42-35.32,50.9-66.84,50.48-37.05-.49-54.8-25-71.55-51.92q-6-1.64-12.1-3.58c-2.51-.8-5-1.63-7.4-2.48C184.13,359.39,207.64,397,243.7,397c34.71,0,57.19-38.24,92.55-63.55C333.65,334.35,331,335.25,328.34,336.1Z"/><path d="M159.71,93.78c6.51,16.11,15.52,29,22,39.06s10.53,17.53,8.79,23.77l-30.78,13.33-30.78,13.33c-7.84-17.68-6.89-36.41-.35-52.39A80.11,80.11,0,0,1,159.71,93.78Z"/><path d="M335.17,93.78a80.11,80.11,0,0,1,31.13,37.1c6.53,16,7.48,34.71-.35,52.39l-30.78-13.33-30.78-13.33c-1.74-6.24,2.26-13.63,8.79-23.77S328.65,109.89,335.17,93.78Z"/><path class="cls-1" d="M267.38,364.09c80.88-17.56,150.93-13.77,204.12,1.52"/><path class="cls-1" d="M263.83,376.92c96.8-19,170.27-2.45,210.06,22.57"/><path class="cls-1" d="M223.71,365c-81.07-16.91-151-13.08-204.34,1.61"/><path class="cls-1" d="M227.08,378.59c-96.69-19.34-170.24-2.81-209.92,22.49"/></svg>