<svg id="Capa_1" data-name="Capa 1" xmlns="http://www.w3.org/2000/svg" viewBox="0 0 82.52 22.51"><defs><style>.cls-1{fill:none;stroke:#1d1d1b;stroke-miterlimit:10;stroke-width:0.2px;}.cls-2{fill:#424242;}.cls-3{font-size:6.09px;fill:#36ad63;font-family:Gilroy-Light, Gilroy;font-weight:300;}.cls-4{letter-spacing:-0.05em;}.cls-5{letter-spacing:0em;}</style></defs><title>logo-codea</title><path d="M32.11,14.76a8.3,8.3,0,0,0-.52-3c-.94-2.43-3.45-4.48-9.46-4.47-4.94,0-7.95,2.07-9.22,4.53a6.22,6.22,0,0,0-.72,2.86c0,1.23.23,3.86,1.65,4.41,3.33,1.29,5.09,5.61,8.29,5.61s4.77-4.42,8.81-5.59C32.23,18.69,32.11,16.06,32.11,14.76Z" transform="translate(-6.53 -3.83)"/><path d="M27.94,20.47c-.4.13-.81.25-1.2.34-1.16,1.89-2.43,3.5-4.59,3.47-2.54,0-3.76-1.71-4.91-3.56l-.83-.25-.51-.17c2.14,1.77,3.76,4.35,6.23,4.35s3.93-2.63,6.36-4.36Z" transform="translate(-6.53 -3.83)"/><path d="M16.37,3.83a15.08,15.08,0,0,0,1.51,2.69c.45.69.72,1.2.6,1.63l-2.11.91L14.25,10a4.59,4.59,0,0,1,0-3.6A5.48,5.48,0,0,1,16.37,3.83Z" transform="translate(-6.53 -3.83)"/><path d="M28.41,3.83a5.48,5.48,0,0,1,2.14,2.55,4.59,4.59,0,0,1,0,3.6l-2.12-.92L26.3,8.15c-.12-.43.15-.94.6-1.63A15.08,15.08,0,0,0,28.41,3.83Z" transform="translate(-6.53 -3.83)"/><path class="cls-1" d="M23.76,22.39a29,29,0,0,1,14,.11" transform="translate(-6.53 -3.83)"/><path class="cls-1" d="M23.52,23.27c6.64-1.3,11.68-.17,14.42,1.55" transform="translate(-6.53 -3.83)"/><path class="cls-1" d="M20.76,22.45a30.15,30.15,0,0,0-14,.11" transform="translate(-6.53 -3.83)"/><path class="cls-1" d="M21,23.39c-6.63-1.33-11.68-.2-14.41,1.54" transform="translate(-6.53 -3.83)"/><path class="cls-2" d="M44.1,15.17a4,4,0,0,1,4.09-4.08,3.72,3.72,0,0,1,3.43,2l-1.13.65a2.49,2.49,0,0,0-2.3-1.36,2.76,2.76,0,0,0,0,5.51,2.59,2.59,0,0,0,2.34-1.35l1.15.67a3.93,3.93,0,0,1-3.49,2A4,4,0,0,1,44.1,15.17Z" transform="translate(-6.53 -3.83)"/><path class="cls-2" d="M52.48,15.17a4.09,4.09,0,1,1,4.08,4.09A4,4,0,0,1,52.48,15.17Zm6.83,0a2.74,2.74,0,1,0-2.75,2.77A2.71,2.71,0,0,0,59.31,15.17Z" transform="translate(-6.53 -3.83)"/><path class="cls-2" d="M70,8.18V19.05H68.69V17.72a3.34,3.34,0,0,1-2.93,1.54,4,4,0,0,1-3.93-4.09,4,4,0,0,1,3.93-4.08,3.36,3.36,0,0,1,2.93,1.53V8.18Zm-1.35,7A2.76,2.76,0,1,0,65.93,18,2.71,2.71,0,0,0,68.69,15.17Z" transform="translate(-6.53 -3.83)"/><path class="cls-2" d="M75.85,18a2.54,2.54,0,0,0,2.24-1.13l1.15.65a3.91,3.91,0,0,1-3.42,1.76,4,4,0,0,1-4.16-4.09,4,4,0,1,1,7.94,0,4,4,0,0,1,0,.6H73A2.66,2.66,0,0,0,75.85,18ZM73,14.61h5.19a2.46,2.46,0,0,0-2.5-2.25A2.58,2.58,0,0,0,73,14.61Z" transform="translate(-6.53 -3.83)"/><path class="cls-2" d="M88.92,11.29v7.76H87.56V17.72a3.34,3.34,0,0,1-2.93,1.54,4,4,0,0,1-3.93-4.09,4,4,0,0,1,3.93-4.08,3.36,3.36,0,0,1,2.93,1.53V11.29Zm-1.36,3.88A2.76,2.76,0,1,0,84.8,18,2.71,2.71,0,0,0,87.56,15.17Z" transform="translate(-6.53 -3.83)"/><text class="cls-3" transform="translate(67.86 21.05) scale(1.06 1)">BE<tspan class="cls-4" x="7.04" y="0">T</tspan><tspan class="cls-5" x="10.02" y="0">A</tspan></text></svg>