<svg xmlns="http://www.w3.org/2000/svg" viewBox="0 0 500 500"><defs><style>.cls-1,.cls-2{stroke:#000;}.cls-1{stroke-linejoin:round;}.cls-2{fill:none;stroke-linecap:round;stroke-miterlimit:10;}</style></defs><title>Mesa de trabajo 1</title><g id="Capa_2" data-name="Capa 2"><path class="cls-1" d="M394.39,173.21c9.13-42.64.86-80.67-37-110.87C348.68,91.62,337.8,117.1,322,133.79c-22.79-7.29-122.08-7.29-144.87,0-15.85-16.69-26.74-42.17-35.48-71.45-37.82,30.2-46.1,68.23-37,110.87-41.06,30.39-52.73,138.23,0,165.08,41.06,21.35,90.34,99.37,144.87,99.37s103.81-78,144.88-99.37C447.11,311.44,435.45,203.6,394.39,173.21Z"/><path class="cls-2" d="M286,389.94a469.62,469.62,0,0,1,183,0"/><path class="cls-2" d="M286,374.94a469.62,469.62,0,0,1,183,0"/><path class="cls-2" d="M214,389.94a469.63,469.63,0,0,0-183,0"/><path class="cls-2" d="M214,374.94a469.63,469.63,0,0,0-183,0"/></g></svg>