<svg width="502" height="363" viewBox="0 0 502 363" fill="none" xmlns="http://www.w3.org/2000/svg">
<path d="M389.2 107.64C397.941 66.6268 390.023 30.0477 353.776 1C345.437 29.1628 335.021 53.6707 319.894 69.7239C298.074 62.712 203.014 62.712 181.195 69.7239C166.02 53.6707 155.594 29.1628 147.226 1C111.017 30.0477 103.09 66.6268 111.802 107.64C72.4914 136.87 61.3186 240.596 111.802 266.421C151.113 286.957 198.294 362 250.501 362C302.708 362 349.889 286.976 389.21 266.421C439.674 240.596 428.511 136.87 389.2 107.64Z" fill="#39D996" stroke="#39D996" stroke-linejoin="round"/>
<path d="M292 341C360.993 327.667 432.007 327.667 501 341" stroke="#39D996" stroke-miterlimit="10" stroke-linecap="round"/>
<path d="M292 324C360.993 312 432.007 312 501 324" stroke="#39D996" stroke-miterlimit="10" stroke-linecap="round"/>
<path d="M210 341C141.007 327.667 69.9927 327.667 1 341" stroke="#39D996" stroke-miterlimit="10" stroke-linecap="round"/>
<path d="M210 324C141.007 312 69.9927 312 1 324" stroke="#39D996" stroke-miterlimit="10" stroke-linecap="round"/>
</svg>
