<svg id="Capa_1" data-name="Capa 1" xmlns="http://www.w3.org/2000/svg" viewBox="0 0 1000 1000"><defs><style>.cls-1{fill:none;stroke:#000;stroke-miterlimit:10;stroke-width:10px;}.cls-2{fill:#3740ff;}</style></defs><title>pull-requests</title><path class="cls-1" d="M843.4,746.26V342c0-193.7-193.2-193.2-193.2-193.2H585.8V20L392.6,213.2,585.8,406.4V277.6h64.4c56.79,0,64.4,64.4,64.4,64.4V746.26c-38.36,22.33-64.4,63.33-64.4,110.94a128.8,128.8,0,0,0,257.6,0C907.8,809.65,881.76,768.59,843.4,746.26Z"/><path class="cls-1" d="M224.8,84.4A128.84,128.84,0,0,0,96,213.2c0,47.51,26.07,88.61,64.4,111V746.26C122.07,768.59,96,809.65,96,857.2a128.8,128.8,0,0,0,257.6,0c0-47.55-26-88.61-64.4-110.94V324.17c38.39-22.36,64.4-63.46,64.4-111A128.84,128.84,0,0,0,224.8,84.4Z"/><circle class="cls-2" cx="224.8" cy="213.2" r="64.4"/><circle class="cls-2" cx="224.8" cy="857.2" r="64.4"/><circle class="cls-2" cx="779" cy="857.2" r="64.4"/></svg>