<svg xmlns="http://www.w3.org/2000/svg" viewBox="0 0 546.25 1015.5"><defs><style>.cls-1{opacity:0.16;}.cls-14,.cls-2{fill:#484848;}.cls-2{opacity:0.14;}.cls-3{fill:#1a73e8;opacity:0.71;}.cls-4{fill:#80e27e;opacity:0.61;}.cls-5{opacity:0.66;}.cls-6{fill:#f7f7f7;}.cls-7{opacity:0.25;}.cls-8{fill:#d98e9d;}.cls-9{fill:#fff;}.cls-10{fill:#e0e4ed;}.cls-11,.cls-12{fill:#737afb;}.cls-11{opacity:0.3;}.cls-13{fill:none;stroke:#000;}.cls-13,.cls-14{stroke-linecap:round;stroke-linejoin:round;stroke-width:15px;}.cls-14{stroke:#020202;}.cls-15{fill:#f79341;}.cls-16{fill:#42f481;}</style></defs><title>Recurso 5</title><g id="Capa_2" data-name="Capa 2"><g id="Capa_1-2" data-name="Capa 1"><circle class="cls-1" cx="450.98" cy="74.75" r="74.75"/><circle class="cls-2" cx="450.73" cy="74.5" r="45.5"/><polyline class="cls-3" points="371.23 241 371.23 308 333.23 275"/><polyline class="cls-4" points="391.23 241 391.23 308 353.23 275"/><polyline class="cls-5" points="429.23 241 429.23 308 391.23 275"/><path class="cls-6" d="M379.38,361.3a2.3,2.3,0,1,1-2.3-2.3A2.3,2.3,0,0,1,379.38,361.3Z"/><g class="cls-7"><rect class="cls-8" x="223.64" y="385.21" width="41.08" height="7.25"/><rect class="cls-9" x="186.54" y="385.21" width="16.91" height="7.25"/><rect class="cls-9" x="186.54" y="398.51" width="16.91" height="7.25"/><rect class="cls-9" x="186.54" y="414.21" width="16.91" height="7.25"/><rect class="cls-9" x="186.54" y="429.92" width="16.91" height="7.25"/><rect class="cls-9" x="186.54" y="445.63" width="16.91" height="7.25"/><rect class="cls-9" x="186.54" y="461.33" width="16.91" height="7.25"/><rect class="cls-10" x="273.18" y="385.21" width="137.74" height="7.25"/><rect class="cls-8" x="238.14" y="398.51" width="41.08" height="7.25"/><rect class="cls-10" x="287.67" y="398.51" width="137.74" height="7.25"/><rect class="cls-8" x="262.3" y="414.21" width="41.08" height="7.25"/><rect class="cls-10" x="311.84" y="414.21" width="137.74" height="7.25"/><rect class="cls-8" x="286.47" y="429.92" width="41.08" height="7.25"/><rect class="cls-10" x="336.01" y="429.92" width="137.74" height="7.25"/><rect class="cls-8" x="262.3" y="445.63" width="41.08" height="7.25"/><rect class="cls-10" x="311.84" y="445.63" width="210.24" height="7.25"/><rect class="cls-8" x="238.14" y="461.33" width="41.08" height="7.25"/><rect class="cls-10" x="287.67" y="461.33" width="89.41" height="7.25"/></g><g class="cls-7"><rect class="cls-8" x="223.64" y="481.9" width="41.08" height="7.25"/><rect class="cls-9" x="186.54" y="481.9" width="16.91" height="7.25"/><rect class="cls-9" x="186.54" y="495.19" width="16.91" height="7.25"/><rect class="cls-9" x="186.54" y="510.9" width="16.91" height="7.25"/><rect class="cls-9" x="186.54" y="526.6" width="16.91" height="7.25"/><rect class="cls-9" x="186.54" y="542.31" width="16.91" height="7.25"/><rect class="cls-9" x="186.54" y="558.02" width="16.91" height="7.25"/><rect class="cls-10" x="273.18" y="481.9" width="137.74" height="7.25"/><rect class="cls-8" x="238.14" y="495.19" width="41.08" height="7.25"/><rect class="cls-10" x="287.67" y="495.19" width="137.74" height="7.25"/><rect class="cls-8" x="262.3" y="510.9" width="41.08" height="7.25"/><rect class="cls-10" x="311.84" y="510.9" width="137.74" height="7.25"/><rect class="cls-8" x="223.64" y="578.56" width="41.08" height="7.25"/><rect class="cls-9" x="186.54" y="578.56" width="16.91" height="7.25"/><rect class="cls-9" x="186.54" y="591.85" width="16.91" height="7.25"/><rect class="cls-9" x="186.54" y="607.56" width="16.91" height="7.25"/><rect class="cls-10" x="273.18" y="578.56" width="137.74" height="7.25"/><rect class="cls-8" x="238.14" y="591.85" width="41.08" height="7.25"/><rect class="cls-10" x="287.67" y="591.85" width="137.74" height="7.25"/><rect class="cls-8" x="262.3" y="607.56" width="41.08" height="7.25"/><rect class="cls-10" x="311.84" y="607.56" width="137.74" height="7.25"/><rect class="cls-8" x="286.47" y="526.6" width="41.08" height="7.25"/><rect class="cls-10" x="336.01" y="526.6" width="210.24" height="7.25"/><rect class="cls-8" x="262.3" y="542.31" width="41.08" height="7.25"/><rect class="cls-10" x="311.84" y="542.31" width="137.74" height="7.25"/><rect class="cls-8" x="238.14" y="558.02" width="41.08" height="7.25"/><rect class="cls-10" x="287.67" y="558.02" width="137.74" height="7.25"/></g><rect class="cls-11" x="498.63" y="644.76" width="16.08" height="17.72"/><rect class="cls-11" x="526.38" y="644.76" width="16.08" height="17.72"/><circle class="cls-12" cx="480.48" cy="524.7" r="11.86"/><rect class="cls-11" x="346.44" y="644.76" width="16.08" height="17.72"/><line class="cls-13" x1="474.23" y1="949" x2="474.23" y2="1008"/><line class="cls-14" x1="503.73" y1="981.28" x2="444.73" y2="981.28"/><line class="cls-13" x1="458.73" y1="761" x2="458.73" y2="803"/><line class="cls-14" x1="479.73" y1="783.98" x2="437.73" y2="783.98"/><line class="cls-13" x1="232.73" y1="34" x2="232.73" y2="76"/><line class="cls-14" x1="253.73" y1="56.98" x2="211.73" y2="56.98"/><line class="cls-13" x1="92.73" y1="266" x2="92.73" y2="308"/><line class="cls-14" x1="113.73" y1="288.98" x2="71.73" y2="288.98"/><line class="cls-13" x1="113.23" y1="793" x2="113.23" y2="926"/><line class="cls-14" x1="179.73" y1="865.76" x2="46.73" y2="865.76"/><rect class="cls-15" x="263.23" y="887" width="236" height="4"/><rect class="cls-16" x="-24.77" y="162" width="236" height="4" transform="translate(123.29 -22.24) rotate(38.78)"/></g></g></svg>