<svg xmlns="http://www.w3.org/2000/svg" viewBox="0 0 1098.75 246.5"><defs><style>.cls-1{opacity:0.16;}.cls-2,.cls-4{fill:#484848;}.cls-2{opacity:0.14;}.cls-3{fill:none;stroke:#000;}.cls-3,.cls-4{stroke-linecap:round;stroke-linejoin:round;stroke-width:15px;}.cls-4{stroke:#020202;}.cls-5{fill:#1a73e8;opacity:0.71;}.cls-6{fill:#80e27e;opacity:0.61;}.cls-7{opacity:0.66;}.cls-8{fill:#42f481;}.cls-9{fill:#f79341;}</style></defs><title>Recurso 2</title><g id="Capa_2" data-name="Capa 2"><g id="Capa_1-2" data-name="Capa 1"><circle class="cls-1" cx="246.75" cy="74.75" r="74.75"/><circle class="cls-2" cx="246.5" cy="74.5" r="45.5"/><line class="cls-3" x1="28.5" y1="34" x2="28.5" y2="76"/><line class="cls-4" x1="49.5" y1="56.98" x2="7.5" y2="56.98"/><polyline class="cls-5" points="87 86 87 153 49 120"/><polyline class="cls-6" points="107 86 107 153 69 120"/><polyline class="cls-7" points="145 86 145 153 107 120"/><rect class="cls-8" x="812" y="102" width="236" height="4" transform="translate(270.21 -559.62) rotate(38.78)"/><line class="cls-3" x1="475.5" y1="197" x2="475.5" y2="239"/><line class="cls-4" x1="496.5" y1="219.98" x2="454.5" y2="219.98"/><line class="cls-3" x1="406.5" y1="34" x2="406.5" y2="76"/><line class="cls-4" x1="427.5" y1="56.98" x2="385.5" y2="56.98"/><line class="cls-3" x1="994.5" y1="36" x2="994.5" y2="78"/><line class="cls-4" x1="1015.5" y1="58.98" x2="973.5" y2="58.98"/><rect class="cls-9" x="516" y="84" width="236" height="4"/><polyline class="cls-5" points="804 119 804 186 766 153"/><polyline class="cls-6" points="824 119 824 186 786 153"/><polyline class="cls-7" points="862 119 862 186 824 153"/><line class="cls-3" x1="1081.62" y1="143.49" x2="1081.62" y2="162.75"/><line class="cls-4" x1="1091.25" y1="154.03" x2="1071.99" y2="154.03"/></g></g></svg>