<svg id="Layer_1_copy_5" data-name="Layer 1 copy 5" xmlns="http://www.w3.org/2000/svg" viewBox="0 0 29.7 29.7"><defs><style>.cls-1{fill:#fff;}.cls-2{fill:#c63d14;}</style></defs><title>_01_languages logos [Recovered]</title><path class="cls-1" d="M4.86,18c-1.1,2-2,4.07-1.68,6.4a4.09,4.09,0,0,0,2.14,3.27A4.82,4.82,0,0,0,9.41,28a45.51,45.51,0,0,0,4.83-2.05,21.58,21.58,0,0,1,7.37-2.36A9.88,9.88,0,0,0,23.83,23a3.66,3.66,0,0,0,2.19-2,3.74,3.74,0,0,0,0-3.4,3.65,3.65,0,0,1-5.52-2.9H18.7c-.47,2.17-1.64,3.37-3.43,3.41a1.21,1.21,0,0,0-1.07.6A12.43,12.43,0,0,1,8.81,23a1.2,1.2,0,0,1-1.24-.11,4.3,4.3,0,0,1-2.08-4.28c0-.14,0-.29,0-.45Zm11-6.67.29,0L19.56,4.5l3.37,6.85.27,0,3.35-9.86h-14ZM6.11,12.69a2,2,0,1,0,0,4,2,2,0,0,0,0-4Zm9,0a2,2,0,0,0-2,2,2,2,0,1,0,2-2Zm8.93,4a2,2,0,0,0,2-2,2,2,0,0,0-2-2,2,2,0,0,0-2,2A2,2,0,0,0,24.07,16.66Z"/><path class="cls-2" d="M4.86,18l.64.19c0,.16,0,.31,0,.45a4.3,4.3,0,0,0,2.08,4.28A1.2,1.2,0,0,0,8.81,23a12.43,12.43,0,0,0,5.39-4.27,1.21,1.21,0,0,1,1.07-.6c1.79,0,3-1.25,3.43-3.41H20.5A3.65,3.65,0,0,0,26,17.65a3.74,3.74,0,0,1,0,3.4,3.66,3.66,0,0,1-2.19,2,9.88,9.88,0,0,1-2.22.54,21.58,21.58,0,0,0-7.37,2.36A45.51,45.51,0,0,1,9.41,28a4.82,4.82,0,0,1-4.09-.32,4.09,4.09,0,0,1-2.14-3.27C2.89,22.08,3.76,20,4.86,18Z"/><path class="cls-2" d="M15.89,11.34,12.53,1.47h14L23.2,11.33l-.27,0L19.56,4.5l-3.39,6.82Z"/><path class="cls-2" d="M6.11,12.69a2,2,0,0,1,0,4,2,2,0,1,1,0-4Z"/><path class="cls-2" d="M15.13,12.68a2,2,0,0,1,2,2,2,2,0,0,1-4,0A2,2,0,0,1,15.13,12.68Z"/><path class="cls-2" d="M24.07,16.66a2,2,0,0,1-1.94-2,2,2,0,0,1,2-2,2,2,0,0,1,2,2A2,2,0,0,1,24.07,16.66Z"/></svg>